:SAMPLES-PER-SECOND 30
:FULLY-SPECIFIED
:DEGREES
296
root  -31.1746 38.2833 -5.60131 153.888 -80.8408 -159.62
RightUpLeg  -20.356 -29.1393 15.7932
RightLeg  27.9571 -10.3354 -6.04255
RightFoot  -9.93796 0.131696 -16.2185
RightToes  0.000482159 0.542163 -0.142577
Spine  6.1551 -6.17662 2.9907
Spine1  3.50182 -8.3753 13.8593
HEad  16.8778 -1.10276 1.1105
LeftShoulder1  6.42302 -9.83751 -41.7652
LeftArm  -13.6046 20.8483 -27.7558
LeftForeArm  55.3493 -49.5973 -9.10468
LeftHand  -0.25398 0.0180481 5.50724
RightShoulder  3.0805 5.25063 29.2023
RightArm  -15.3128 -29.0757 35.9713
RightForeArm  -0.46565 18.9077 4.80936
RightHand  -1.74381 5.11984 -19.4563
LeftUpLeg  1.29378 18.8486 7.90168
LeftLeg  59.4157 -4.56405 -7.75966
LeftFoot  15.3226 4.23008 -18.1583
LeftToes  1.06246e-005 4.65855e-005 -8.18503e-006
297
root  -32.4966 38.5731 -5.45213 160.371 -77.4728 -166.086
RightUpLeg  -17.4521 -26.1124 14.0895
RightLeg  28.0897 -10.005 -5.70668
RightFoot  -10.9337 -0.0180686 -15.4843
RightToes  0.000482159 0.542163 -0.142577
Spine  6.2204 -5.60352 3.53026
Spine1  3.59524 -7.54021 13.1778
HEad  17.0162 -1.83394 1.93534
LeftShoulder1  6.43627 -9.85028 -41.8147
LeftArm  -12.1335 20.9828 -27.5181
LeftForeArm  56.1414 -49.5474 -9.03741
LeftHand  -0.25398 0.0180481 5.50724
RightShoulder  3.1083 5.24793 29.5365
RightArm  -14.4421 -27.7255 37.0413
RightForeArm  -1.5143 20.4598 4.866
RightHand  -1.8574 5.5276 -19.9417
LeftUpLeg  -4.23802 18.4984 7.82639
LeftLeg  64.9919 -2.75864 -5.79132
LeftFoot  13.9183 3.32249 -15.0871
LeftToes  1.06246e-005 4.65855e-005 -8.18503e-006
298
root  -33.8454 38.9817 -5.30863 168.323 -73.0111 -174.083
RightUpLeg  -14.1406 -21.2533 11.4527
RightLeg  27.3249 -9.76753 -5.35633
RightFoot  -11.3887 -0.0812518 -13.4779
RightToes  0.000482159 0.542163 -0.142577
Spine  5.65746 -4.78833 3.49923
Spine1  4.06908 -6.4532 11.5853
HEad  17.4134 -1.7648 2.50494
LeftShoulder1  6.41398 -9.80562 -41.8089
LeftArm  -11.9616 21.8614 -27.3335
LeftForeArm  55.88 -49.6636 -9.09786
LeftHand  -0.25398 0.0180481 5.50724
RightShoulder  3.19038 5.41079 29.8147
RightArm  -11.8452 -26.2176 38.0011
RightForeArm  -1.2041 22.2747 4.94602
RightHand  -1.86231 5.53323 -19.9805
LeftUpLeg  -8.7101 18.7007 6.81092
LeftLeg  66.9053 -0.739583 -1.2227
LeftFoot  10.4647 2.04491 -10.9308
LeftToes  1.06246e-005 4.65855e-005 -8.18503e-006
299
root  -35.1618 39.3306 -5.15583 173.591 -68.2788 -179.328
RightUpLeg  -11.3641 -16.9035 8.71507
RightLeg  26.5337 -8.94428 -4.50563
RightFoot  -12.1586 -0.16636 -11.729
RightToes  0.000482159 0.542163 -0.142577
Spine  4.96064 -4.28852 3.37522
Spine1  4.57757 -5.6617 9.94702
HEad  17.5543 -0.980506 2.48905
LeftShoulder1  6.40736 -9.78584 -41.8291
LeftArm  -12.7898 23.4124 -27.1263
LeftForeArm  54.8294 -49.8952 -9.25176
LeftHand  -0.25398 0.0180481 5.50724
RightShoulder  3.27206 5.59894 29.976
RightArm  -8.54394 -24.8136 38.8354
RightForeArm  -0.429548 24.3127 5.21111
RightHand  -1.90148 5.61823 -20.2331
LeftUpLeg  -12.7569 17.7869 5.32376
LeftLeg  66.2208 1.56198 4.55614
LeftFoot  7.3165 1.10148 -6.96431
LeftToes  1.06246e-005 4.65855e-005 -8.18503e-006
300
root  -36.4599 39.6664 -4.98837 176.408 -63.4132 177.953
RightUpLeg  -8.88476 -13.3322 6.24502
RightLeg  25.2822 -7.63106 -3.1981
RightFoot  -12.6924 -0.216724 -11.0602
RightToes  0.000482159 0.542163 -0.142577
Spine  4.43612 -3.98227 3.71745
Spine1  4.83044 -5.04536 8.21864
HEad  17.2127 0.0568481 1.99026
LeftShoulder1  6.39713 -9.72077 -41.9774
LeftArm  -13.505 24.8008 -26.7646
LeftForeArm  53.6208 -49.9246 -9.33915
LeftHand  -0.25398 0.0180481 5.50724
RightShoulder  3.31874 5.68576 30.1474
RightArm  -5.68867 -23.7622 39.4301
RightForeArm  0.315142 26.6452 5.71614
RightHand  -1.98542 5.85676 -20.6686
LeftUpLeg  -16.1402 15.8485 4.22692
LeftLeg  63.422 4.075 9.40427
LeftFoot  4.14493 0.361126 -2.82307
LeftToes  1.06246e-005 4.65855e-005 -8.18503e-006
301
root  -37.7162 40.0017 -4.82295 177.881 -58.061 176.543
RightUpLeg  -6.58596 -10.0159 4.13586
RightLeg  23.589 -5.44008 -1.91161
RightFoot  -12.6882 -0.207651 -10.336
RightToes  0.000482159 0.542163 -0.142577
Spine  4.28253 -3.5325 4.1767
Spine1  4.9026 -4.36237 6.50722
HEad  16.2983 1.20838 1.15512
LeftShoulder1  6.42246 -9.67501 -42.3107
LeftArm  -13.8797 25.7191 -26.4573
LeftForeArm  52.8249 -49.6557 -9.28515
LeftHand  -0.25398 0.0180481 5.50724
RightShoulder  3.36885 5.77404 30.3471
RightArm  -3.68469 -23.1164 39.6913
RightForeArm  0.829789 29.2055 6.2993
RightHand  -1.99831 5.8435 -20.8202
LeftUpLeg  -18.3444 13.4056 3.97022
LeftLeg  58.3666 6.49147 11.7545
LeftFoot  0.980595 -0.00704324 -0.0489727
LeftToes  1.06246e-005 4.65855e-005 -8.18503e-006
